{"title":"Metal.Hurlant.S01E04.Red.Light.Cold.Hard.Facts.720p.AC3.2.0.x264","uid":7953578,"size":372719507,"categoryP":"video","categoryS":"hd___tv_shows","magnet":"?xt=urn:btih:75b4f6522599795857536bc3e0be455a99728087&amp;dn=Metal.Hurlant.S01E04.Red.Light.Cold.Hard.Facts.720p.AC3.2.0.x264&amp;tr=udp%3A%2F%2Ftracker.openbittorrent.com%3A80&amp;tr=udp%3A%2F%2Fopen.demonii.com%3A1337&amp;tr=udp%3A%2F%2Ftracker.coppersurfer.tk%3A6969&amp;tr=udp%3A%2F%2Fexodus.desync.com%3A6969","seeders":1,"leechers":0,"uploader":"helder1965","files":-1,"time":1356309857,"description":"General\nMetal.Hurlant.S01E04.Red.Light.Cold.Hard.Facts.720p.AC3.2.0.x264.mkv\nFormat                                   : Matroska\nFormat version                           : Version 2\nFile size                                : 355 MiB\nDuration                                 : 21mn 39s\nOverall bit rate                         : 2 294 Kbps\n\nVideo\nID                                       : 1\nFormat                                   : AVC\nFormat/Info                              : Advanced Video Codec\nFormat profile                           : &lt;a class=&quot;__cf_email__&quot; href=&quot;/cdn-cgi/l/email-protection&quot; data-cfemail=&quot;dd95b4bab59d91e9f3ec&quot;&gt;[email&amp;#160;protected]&lt;/a&gt;&lt;script cf-hash='f9e31' type=&quot;text/javascript&quot;&gt;\n/* &lt;![CDATA[ */!function(){try{var t=&quot;currentScript&quot;in document?document.currentScript:function(){for(var t=document.getElementsByTagName(&quot;script&quot;),e=t.length;e--;)if(t[e].getAttribute(&quot;cf-hash&quot;))return t[e]}();if(t&amp;&amp;t.previousSibling){var e,r,n,i,c=t.previousSibling,a=c.getAttribute(&quot;data-cfemail&quot;);if(a){for(e=&quot;&quot;,r=parseInt(a.substr(0,2),16),n=2;a.length-n;n+=2)i=parseInt(a.substr(n,2),16)^r,e+=String.fromCharCode(i);e=document.createTextNode(e),c.parentNode.replaceChild(e,c)}}}catch(u){}}();/* ]]&gt; */&lt;/script&gt;\nFormat settings, CABAC                   : Yes\nFormat settings, ReFrames                : 9 frames\nCodec ID                                 : V_MPEG4/ISO/AVC\nDuration                                 : 21mn 39s\nBit rate                                 : 1 801 Kbps\nWidth                                    : 1 280 pixels\nHeight                                   : 720 pixels\nDisplay aspect ratio                     : 16:9\nFrame rate mode                          : Constant\nFrame rate                               : 25.000 fps\nColor space                              : YUV\nChroma subsampling                       : 4:2:0\nBit depth                                : 8 bits\nScan type                                : Progressive\nBits/(Pixel*Frame)                       : 0.078\nStream size                              : 279 MiB (78%)\n\nAudio\nID                                       : 2\nFormat                                   : AC-3\nFormat/Info                              : Audio Coding 3\nMode extension                           : CM (complete main)\nFormat settings, Endianness              : Big\nCodec ID                                 : A_AC3\nDuration                                 : 21mn 39s\nBit rate mode                            : Constant\nBit rate                                 : 448 Kbps\nChannel(s)                               : 2 channels\nChannel positions                        : Front: L R\nSampling rate                            : 48.0 KHz\nBit depth                                : 16 bits\nCompression mode                         : Lossy\nStream size                              : 69.4 MiB (20%)\n\nHail, Master Tozz!\nA new episode of Metal Hurlant!\n\nEnjoy and seed it, buddies!\n@helder1965","torrent":{"xt":"urn:btih:75b4f6522599795857536bc3e0be455a99728087","amp;dn":"Metal.Hurlant.S01E04.Red.Light.Cold.Hard.Facts.720p.AC3.2.0.x264","amp;tr":["udp%3A%2F%2Ftracker.openbittorrent.com%3A80","udp%3A%2F%2Fopen.demonii.com%3A1337","udp%3A%2F%2Ftracker.coppersurfer.tk%3A6969","udp%3A%2F%2Fexodus.desync.com%3A6969"],"infoHash":"75b4f6522599795857536bc3e0be455a99728087","infoHashBuffer":{"type":"Buffer","data":[117,180,246,82,37,153,121,88,87,83,107,195,224,190,69,90,153,114,128,135]},"announce":[],"urlList":[]}}